<svg xmlns="http://www.w3.org/2000/svg" width="2746" height="447" viewBox="0 0 2746.45 447.36"><g id="Layer_1" data-name="Layer 1"><polygon fill="#202020" points="2240.76 447.36 2242.32 374.1 2171.28 374.1 2172.85 447.36 2075.54 447.36 2075.54 0 2173.98 0 2206.8 155.62 2239.63 0 2338.06 0 2338.06 447.36 2240.76 447.36"/><path fill="#202020" d="M2533.29,447.68V.32h115.48c62.84,0,97.45,35.21,97.45,99.14V367.7c0,50.83-31.41,80-86.17,80Zm116.06-87.78,0-4V100a24.14,24.14,0,0,0-1-7.8,11.82,11.82,0,0,0-1.91-.13h-16.38V355.91Z" transform="translate(0.22 -0.32)"/><path fill="#202020" d="M2410.21,447.68c-55.13,0-86.74-32.85-86.74-90.12V91c0-57.63,31.41-90.69,86.18-90.69h51.84c54.77,0,86.18,33.06,86.18,90.69V357.56c0,57.27-31.62,90.12-86.74,90.12Zm10.21-91.94a19.79,19.79,0,0,0,2.75.17h27.55a20.87,20.87,0,0,0,.1-2.3V94.39a19.3,19.3,0,0,0-.1-2.13,20.07,20.07,0,0,0-2.76-.17h-25.35a20.11,20.11,0,0,0-2.19.11,20.11,20.11,0,0,0-.11,2.19V353.61A18.89,18.89,0,0,0,2420.42,355.74Z" transform="translate(0.22 -0.32)"/><path fill="#1795d2" d="M2206.58,259.5l50.15-237.81h59.74V426.31h-54.1L2268,161.45l-40.57,191.6h-41.7l-40.58-191.6,5.64,264.86h-54.1V21.69h59.73Z" transform="translate(0.22 -0.32)"/><path fill="#1795d2" d="M2410.21,426.31q-65.39,0-65.37-68.75V91q0-69.32,64.81-69.32h51.84q64.78,0,64.8,69.32V357.56q0,68.74-65.36,68.75Zm13-49h27.61q21.41,0,21.42-23.67V94.39q0-23.67-24.24-23.67h-25.35q-23.67,0-23.67,23.67V353.61Q2398.94,377.28,2423.17,377.28Z" transform="translate(0.22 -0.32)"/><path fill="#1795d2" d="M2554.67,426.31V21.69h94.1q76.08,0,76.08,77.77V367.7q0,58.62-64.8,58.61Zm54.09-49h40.58q21.4,0,21.41-18V100q0-29.29-24.23-29.3h-37.76Z" transform="translate(0.22 -0.32)"/></g><g id="Layer_2" data-name="Layer 2"><rect fill="#202020" x="1738.69" y="145.14" width="157.72" height="157.72" rx="13.7" transform="translate(374.18 1350.49) rotate(-45)"/><path fill="#202020" d="M1698.56,424.29l190.6-190.6a13.71,13.71,0,0,0,0-19.38l-190.6-190.6A13.7,13.7,0,0,1,1708.24.32h160.27a13.69,13.69,0,0,1,9.69,4l210,210a13.71,13.71,0,0,1,0,19.38l-210,210a13.7,13.7,0,0,1-9.69,4H1708.24A13.7,13.7,0,0,1,1698.56,424.29Z" transform="translate(0.22 -0.32)"/><rect fill="#1795d2" x="1760.06" y="166.51" width="114.97" height="114.97" transform="translate(374.18 1350.49) rotate(-45)"/><polygon fill="#ffffff" points="1865.56 21.37 1726.99 21.37 1929.3 223.68 1726.99 425.98 1865.56 425.98 2067.86 223.68 1865.56 21.37"/></g><g id="Layer_3" data-name="Layer 3"><polygon fill="#202020" points="165.22 447.36 166.78 374.1 95.74 374.1 97.3 447.36 0 447.36 0 0 98.44 0 131.26 155.62 164.08 0 262.52 0 262.52 447.36 165.22 447.36"/><polygon fill="#202020" points="1618.79 447.36 1620.35 374.1 1549.31 374.1 1550.88 447.36 1453.57 447.36 1453.57 0 1552.01 0 1584.83 155.62 1617.65 0 1716.09 0 1716.09 447.36 1618.79 447.36"/><path fill="#202020" d="M334.66,447.68c-55.12,0-86.74-32.85-86.74-90.12V91C247.92,33.38,279.33.32,334.1.32h51.84c54.77,0,86.18,33.06,86.18,90.69V357.56c0,57.27-31.62,90.12-86.74,90.12Zm10.22-91.94a19.74,19.74,0,0,0,2.74.17h27.56c.06-.61.1-1.37.1-2.3V94.39a18.89,18.89,0,0,0-.11-2.13,20,20,0,0,0-2.75-.17H347.06a19.91,19.91,0,0,0-2.18.11,17.53,17.53,0,0,0-.12,2.19V353.61A16.47,16.47,0,0,0,344.88,355.74Z" transform="translate(0.22 -0.32)"/><polygon fill="#202020" points="623.19 447.36 624.75 374.1 553.72 374.1 555.27 447.36 457.97 447.36 457.97 0 556.41 0 589.23 155.62 622.05 0 720.49 0 720.49 447.36 623.19 447.36"/><polygon fill="#202020" points="706.12 447.36 706.12 0 882.98 0 882.98 91.77 802.96 91.77 802.96 171.88 873.97 171.88 873.97 263.65 802.96 263.65 802.96 355.58 882.98 355.58 882.98 447.36 706.12 447.36"/><polygon fill="#202020" points="980.75 447.36 980.75 348.69 965.45 300.12 965.45 447.36 868.61 447.36 868.61 0 960.03 0 980.75 69.81 980.75 0 1077.59 0 1077.59 447.36 980.75 447.36"/><path fill="#202020" d="M1335.34,447.68c-32.19,0-86.18-12.81-86.18-98.58V.32H1346V350.79a22,22,0,0,0,.46,5,16.2,16.2,0,0,0,1.83.1h22.18a27.27,27.27,0,0,0,.41-5.12V.32h96.84V349.67c0,85.27-54.35,98-86.74,98Z" transform="translate(0.22 -0.32)"/><polygon fill="#202020" points="1115.07 447.36 1115.07 91.77 1063.22 91.77 1063.22 0 1263.75 0 1263.75 91.77 1211.91 91.77 1211.91 447.36 1115.07 447.36"/><path fill="#ffffff" d="M131,259.5,181.19,21.69h59.73V426.31h-54.1l5.64-264.86-40.58,191.6h-41.7L69.61,161.45l5.64,264.86H21.15V21.69H80.88Z" transform="translate(0.22 -0.32)"/><path fill="#ffffff" d="M334.66,426.31q-65.37,0-65.37-68.75V91q0-69.32,64.81-69.32h51.84q64.8,0,64.81,69.32V357.56q0,68.74-65.37,68.75Zm13-49h27.62q21.4,0,21.41-23.67V94.39q0-23.67-24.23-23.67H347.06q-23.67,0-23.67,23.67V353.61Q323.39,377.28,347.62,377.28Z" transform="translate(0.22 -0.32)"/><path fill="#ffffff" d="M589,259.5,639.16,21.69H698.9V426.31H644.8l5.63-264.86-40.57,191.6h-41.7l-40.58-191.6,5.64,264.86h-54.1V21.69h59.73Z" transform="translate(0.22 -0.32)"/><path fill="#ffffff" d="M727.27,426.31V21.69H861.39v49h-80V193.57h71v49h-71V377.28h80v49Z" transform="translate(0.22 -0.32)"/><path fill="#ffffff" d="M1001.9,217.24V21.69H1056V426.31h-54.1V345.72l-58-184.27V426.31h-54.1V21.69h54.1Z" transform="translate(0.22 -0.32)"/><path fill="#ffffff" d="M1190.31,70.72V426.31h-54.1V70.72h-51.84v-49h157.79v49Z" transform="translate(0.22 -0.32)"/><path fill="#ffffff" d="M1446.35,21.69v328q0,76.63-65.37,76.64h-45.64q-64.81,0-64.81-77.21V21.69h54.09v329.1q0,26.5,23.67,26.49h22q22,0,22-26.49V21.69Z" transform="translate(0.22 -0.32)"/><path fill="#ffffff" d="M1584.61,259.5l50.15-237.81h59.73V426.31H1640.4L1646,161.45l-40.57,191.6h-41.7l-40.58-191.6,5.64,264.86h-54.1V21.69h59.73Z" transform="translate(0.22 -0.32)"/></g></svg>