<svg xmlns="http://www.w3.org/2000/svg" xml:space="preserve" x="0" y="0" width="620" height="100" version="1.1" viewBox="0 0 620 100">
    <style>
        .st0{fill:#202020}.st1{fill:#1896d3}.st2{fill:#FFFFFF}
    </style>
    <path d="M503.9 100 504.3 83.6 488.4 83.6 488.7 100 467 100 467 0 489 0 496.3 34.8 503.7 0 525.7 0 525.7 100zM569.3 100V0h25.8c14 0 21.8 7.9 21.8 22.2v60c0 11.4-7 17.9-19.3 17.9L569.3 100zM595.3 80.4v-.9V22.3c0-.6-.1-1.2-.2-1.7-.1 0-.3 0-.4 0H591v59L595.3 80.4z" class="st0"/>
    <path d="M541.8,100c-12.3,0-19.4-7.3-19.4-20.1V20.3c0-12.9,7-20.3,19.3-20.3h11.6c12.2,0,19.3,7.4,19.3,20.3v59.6 c0,12.8-7.1,20.1-19.4,20.1H541.8z M544.1,79.5c0.2,0,0.4,0,0.6,0h6.2c0-0.2,0-0.3,0-0.5V21c0-0.2,0-0.3,0-0.5c-0.2,0-0.4,0-0.6,0 h-5.7c-0.2,0-0.3,0-0.5,0c0,0.2,0,0.3,0,0.5V79C544.1,79.1,544.1,79.3,544.1,79.5z" class="st0"/>
    <path d="M496.3 57.9 507.5 4.8 520.9 4.8 520.9 95.2 508.8 95.2 510 36 501 78.8 491.7 78.8 482.6 36 483.8 95.2 471.8 95.2 471.8 4.8 485.1 4.8zM541.8 95.2c-9.7 0-14.6-5.1-14.6-15.4V20.3c0-10.3 4.8-15.5 14.5-15.5h11.6c9.7 0 14.5 5.2 14.5 15.5v59.6c0 10.2-4.9 15.4-14.6 15.4H541.8zM544.7 84.3h6.2c3.2 0 4.8-1.8 4.8-5.3V21c0-3.5-1.8-5.3-5.4-5.3h-5.7c-3.5 0-5.3 1.8-5.3 5.3V79C539.3 82.5 541.1 84.3 544.7 84.3L544.7 84.3zM574.1 95.2V4.8h21c11.3 0 17 5.8 17 17.4v60c0 8.7-4.8 13.1-14.5 13.1H574.1zM586.2 84.3h9.1c3.2 0 4.8-1.3 4.8-4v-58c0-4.4-1.8-6.5-5.4-6.5h-8.4V84.3z" class="st1"/>
    <path d="M386.6,47.8l20.6-20.6c1.2-1.2,3.1-1.2,4.3,0l20.6,20.6c1.2,1.2,1.2,3.1,0,4.3l-20.6,20.6 c-1.2,1.2-3.1,1.2-4.3,0l-20.6-20.6C385.4,51,385.4,49,386.6,47.8z" class="st0"/>
    <path d="M382.8,94.8l42.6-42.6c1.2-1.2,1.2-3.1,0-4.3L382.8,5.2c-1.2-1.2-1.2-3.1,0-4.3c0.6-0.6,1.4-0.9,2.2-0.9h35.8 c0.8,0,1.6,0.3,2.2,0.9l46.9,46.9c1.2,1.2,1.2,3.1,0,4.3l-46.9,46.9c-0.6,0.6-1.4,0.9-2.2,0.9h-35.8c-1.7,0-3.1-1.4-3.1-3.1 C381.9,96.1,382.2,95.3,382.8,94.8z" class="st0"/>
    <path d="M396.5 37.2H422.2V62.900000000000006H396.5z" class="st1" transform="rotate(-45.001 409.362 50.009)"/>
    <path d="M420 4.8 389.1 4.8 434.3 50 389.1 95.2 420 95.2 465.3 50z" class="st2"/>
    <path d="M40 100 40.3 83.6 24.5 83.6 24.8 100 3.1 100 3.1 0 25.1 0 32.4 34.8 39.7 0 61.7 0 61.7 100zM364.9 100 365.2 83.6 349.4 83.6 349.7 100 328 100 328 0 350 0 357.3 34.8 364.6 0 386.6 0 386.6 100z" class="st0"/>
    <path d="M77.9,100c-12.3,0-19.4-7.3-19.4-20.1V20.3C58.5,7.4,65.5,0,77.8,0h11.6c12.2,0,19.3,7.4,19.3,20.3v59.6 c0,12.8-7.1,20.1-19.4,20.1H77.9z M80.2,79.5c0.2,0,0.4,0,0.6,0H87c0-0.1,0-0.3,0-0.5V21c0-0.2,0-0.3,0-0.5c-0.2,0-0.4,0-0.6,0 h-5.7c-0.2,0-0.3,0-0.5,0c0,0.2,0,0.3,0,0.5V79C80.2,79.1,80.2,79.3,80.2,79.5z" class="st0"/>
    <path d="M142.3 100 142.7 83.6 126.8 83.6 127.2 100 105.4 100 105.4 0 127.4 0 134.8 34.8 142.1 0 164.1 0 164.1 100z" class="st0"/>
    <path d="M160.9 100 160.9 0 200.4 0 200.4 20.5 182.5 20.5 182.5 38.4 198.4 38.4 198.4 58.9 182.5 58.9 182.5 79.5 200.4 79.5 200.4 100z" class="st0"/>
    <path d="M222.3 100 222.3 77.9 218.9 67.1 218.9 100 197.2 100 197.2 0 217.6 0 222.3 15.6 222.3 0 243.9 0 243.9 100zM301.6 100c-7.2 0-19.3-2.9-19.3-22V0H304v78.3c0 .4 0 .8.1 1.1.1 0 .3 0 .4 0h5c.1-.4.1-.8.1-1.1V0h21.6v78.1c0 19.1-12.1 21.9-19.4 21.9L301.6 100z" class="st0"/>
    <path d="M252.3 100 252.3 20.5 240.7 20.5 240.7 0 285.5 0 285.5 20.5 273.9 20.5 273.9 100z" class="st0"/>
    <path d="M32.4 57.9 43.6 4.8 57 4.8 57 95.2 44.9 95.2 46.1 36 37.1 78.8 27.7 78.8 18.7 36 19.9 95.2 7.8 95.2 7.8 4.8 21.2 4.8zM77.9 95.2c-9.7 0-14.6-5.1-14.6-15.4V20.3c0-10.3 4.8-15.5 14.5-15.5h11.6c9.7 0 14.5 5.2 14.5 15.5v59.6c0 10.2-4.9 15.4-14.6 15.4H77.9zM80.8 84.3H87c3.2 0 4.8-1.8 4.8-5.3V21c0-3.5-1.8-5.3-5.4-5.3h-5.7c-3.5 0-5.3 1.8-5.3 5.3V79C75.4 82.5 77.2 84.3 80.8 84.3L80.8 84.3zM134.8 57.9 146 4.8 159.3 4.8 159.3 95.2 147.2 95.2 148.5 36 139.4 78.8 130.1 78.8 121 36 122.3 95.2 110.2 95.2 110.2 4.8 123.5 4.8zM165.7 95.2 165.7 4.8 195.6 4.8 195.6 15.7 177.8 15.7 177.8 43.2 193.6 43.2 193.6 54.2 177.8 54.2 177.8 84.3 195.6 84.3 195.6 95.2zM227 48.5 227 4.8 239.1 4.8 239.1 95.2 227 95.2 227 77.2 214.1 36 214.1 95.2 202 95.2 202 4.8 214.1 4.8zM269.2 15.7 269.2 95.2 257.1 95.2 257.1 15.7 245.5 15.7 245.5 4.8 280.7 4.8 280.7 15.7zM326.4 4.8v73.3c0 11.4-4.9 17.1-14.6 17.1h-10.2c-9.7 0-14.5-5.8-14.5-17.3V4.8h12.1v73.6c0 3.9 1.8 5.9 5.3 5.9h4.9c3.3 0 4.9-2 4.9-5.9V4.8H326.4zM357.3 57.9 368.5 4.8 381.9 4.8 381.9 95.2 369.8 95.2 371 36 361.9 78.8 352.6 78.8 343.6 36 344.8 95.2 332.7 95.2 332.7 4.8 346.1 4.8z" class="st2"/>
</svg>
